<svg xmlns="http://www.w3.org/2000/svg" viewBox="0 0 23.99 23.99"><defs><style>.cls-1{fill:#639;}</style></defs><title>Asset 1</title><g id="Layer_2" data-name="Layer 2"><g id="Layer_1-2" data-name="Layer 1"><path class="cls-1" d="M12,0A11.93,11.93,0,0,0,0,12,11.93,11.93,0,0,0,12,24,11.93,11.93,0,0,0,24,12,11.93,11.93,0,0,0,12,0ZM2.61,12.1l9.28,9.28A9.3,9.3,0,0,1,2.61,12.1Zm11.47,9.07L2.82,9.91A9.43,9.43,0,0,1,19.61,6.47L18.25,7.61a7.63,7.63,0,0,0-6.36-3.33,7.55,7.55,0,0,0-7.2,5.11l9.81,9.8a7.44,7.44,0,0,0,4.8-5.42H15.23V12h6.15A9.4,9.4,0,0,1,14.08,21.17Z"/></g></g></svg>